<?xml version="1.0" standalone="no"?>
<!DOCTYPE svg PUBLIC "-//W3C//DTD SVG 20010904//EN"
 "http://www.w3.org/TR/2001/REC-SVG-20010904/DTD/svg10.dtd">
<svg version="1.0" xmlns="http://www.w3.org/2000/svg"
 width="2816.000000pt" height="1536.000000pt" viewBox="0 0 2816.000000 1536.000000"
 preserveAspectRatio="xMidYMid meet">

<g transform="translate(0.000000,1536.000000) scale(0.100000,-0.100000)"
fill="#000000" stroke="none">
<path d="M0 7680 l0 -7680 14080 0 14080 0 0 7680 0 7680 -14080 0 -14080 0 0
-7680z m15861 3769 c208 -21 393 -73 586 -164 190 -90 338 -200 509 -378 226
-234 382 -543 446 -882 32 -169 32 -428 0 -600 -101 -540 -470 -1021 -965
-1255 -342 -162 -712 -208 -1076 -134 -108 22 -299 87 -411 140 -278 132 -555
380 -713 639 l-37 60 49 110 c27 61 52 125 56 144 7 33 8 33 65 -78 79 -151
156 -256 277 -377 206 -206 478 -354 766 -416 136 -29 426 -32 560 -5 239 48
478 164 687 333 107 86 253 259 332 394 337 571 235 1326 -242 1800 -58 58
-141 131 -186 162 -109 78 -288 168 -409 206 -184 57 -250 67 -470 67 -181 0
-210 -3 -311 -27 -448 -106 -809 -393 -1014 -803 -111 -222 -147 -372 -160
-660 -20 -438 -129 -741 -385 -1071 -78 -99 -236 -250 -343 -327 -300 -216
-644 -329 -997 -329 -483 1 -927 193 -1267 551 -120 126 -202 242 -282 399
-105 208 -160 393 -187 631 -14 121 0 334 31 487 129 624 583 1127 1185 1313
176 54 266 66 510 66 190 0 235 -3 333 -23 463 -94 847 -352 1107 -744 l58
-88 -40 -87 c-22 -49 -48 -112 -58 -142 l-17 -53 -53 99 c-141 270 -354 491
-609 632 -395 217 -854 247 -1268 81 -217 -87 -371 -191 -539 -367 -477 -499
-543 -1267 -158 -1843 68 -101 226 -272 324 -350 190 -152 454 -268 691 -305
160 -26 430 -17 570 19 520 130 934 522 1089 1029 42 138 56 231 65 427 15
335 79 566 236 851 76 139 152 237 289 374 96 97 160 151 245 208 343 227 735
327 1131 286z m-3178 -615 c469 -98 807 -452 893 -933 31 -175 12 -374 -51
-551 -109 -302 -345 -546 -645 -670 -150 -62 -218 -74 -405 -75 -147 0 -182 3
-260 24 -402 105 -720 406 -829 784 -38 129 -49 203 -48 313 4 576 434 1059
1001 1124 94 11 253 3 344 -16z m3236 1 c278 -58 510 -208 684 -440 143 -192
219 -417 219 -650 -1 -138 -11 -217 -48 -341 -116 -403 -472 -716 -896 -790
-120 -21 -319 -14 -431 15 -366 95 -654 343 -788 677 -153 381 -104 776 136
1096 184 245 464 410 760 448 91 11 275 4 364 -15z m-5635 -3747 c53 -23 96
-46 95 -52 0 -6 -46 -49 -101 -96 -265 -225 -264 -224 -286 -197 -8 9 13 62
80 200 50 103 97 187 104 187 7 0 56 -19 108 -42z m6688 -670 c3 -802 -1 -760
78 -792 28 -11 40 -22 40 -36 0 -19 -6 -20 -235 -20 -200 0 -235 2 -235 15 0
8 12 21 28 29 15 8 38 26 52 41 l25 27 3 604 c3 676 6 644 -68 686 -28 16 -40
30 -40 45 0 19 11 26 83 47 107 33 228 64 249 65 16 1 17 -46 20 -711z m2512
624 c50 -29 71 -67 70 -126 0 -94 -56 -146 -156 -146 -52 0 -62 3 -98 36 -85
77 -56 209 55 249 44 16 85 12 129 -13z m838 -43 c166 -78 208 -76 263 11 27
42 45 49 65 25 9 -11 8 -25 -5 -67 -28 -85 -61 -135 -111 -164 -70 -41 -139
-33 -279 34 -149 70 -180 68 -215 -14 -16 -37 -24 -44 -48 -44 -16 0 -31 3
-34 6 -8 8 17 97 42 148 11 24 36 56 55 70 81 62 127 61 267 -5z m-13574 -14
c21 -57 378 -952 397 -999 l17 -40 84 230 c230 626 306 828 317 842 7 9 54 12
191 10 173 -3 181 -4 183 -23 2 -15 -9 -26 -47 -43 -96 -45 -96 -40 -50 -567
68 -783 58 -729 141 -764 35 -16 49 -27 49 -41 0 -19 -8 -20 -255 -20 -245 0
-255 1 -255 19 0 13 15 28 43 43 61 33 79 75 72 163 -3 39 -14 178 -25 310
-10 132 -24 317 -30 410 -16 247 -16 246 -56 144 -33 -84 -236 -627 -338 -907
-30 -81 -58 -155 -61 -165 -6 -14 -17 -17 -49 -15 l-41 3 -63 155 c-60 147
-384 978 -394 1010 -3 8 -10 -55 -17 -140 -6 -85 -21 -270 -32 -410 -12 -140
-22 -298 -22 -350 -2 -84 1 -100 23 -140 18 -32 39 -52 73 -70 28 -15 47 -32
47 -42 0 -17 -16 -18 -193 -18 -107 0 -196 3 -199 6 -12 12 5 43 27 48 39 10
84 63 100 119 8 29 21 140 30 247 9 107 27 323 40 480 31 363 32 397 2 441
-15 22 -38 39 -65 49 -36 12 -42 18 -42 42 l0 28 191 -2 191 -3 16 -40z m7139
32 c12 -14 37 -352 28 -367 -8 -13 -45 -13 -45 1 0 6 -15 43 -34 83 -38 83
-93 149 -146 176 -44 22 -135 40 -207 40 l-54 0 3 -617 c3 -708 -2 -668 88
-700 40 -14 50 -22 50 -40 l0 -23 -265 0 -265 0 0 23 c0 18 10 26 51 40 43 16
53 25 70 60 18 40 19 75 19 651 l0 609 -94 -6 c-175 -10 -262 -75 -322 -241
-21 -59 -44 -80 -64 -59 -8 7 6 341 15 370 6 18 1159 18 1172 0z m-4437 -282
l0 -134 153 -3 152 -3 0 -40 0 -40 -150 -5 -150 -5 -3 -305 c-4 -411 5 -461
92 -504 34 -16 45 -17 90 -7 29 6 69 23 89 37 76 52 79 -9 4 -82 -71 -68 -139
-94 -250 -94 -127 1 -190 39 -239 145 -23 49 -23 58 -26 427 l-3 377 -67 3
c-60 3 -67 5 -70 24 -2 17 9 29 50 52 88 51 188 142 241 220 32 47 56 72 68
72 18 0 19 -9 19 -135z m8272 -119 c66 -8 138 -47 186 -101 72 -82 75 -99 82
-465 3 -179 9 -333 14 -343 14 -29 66 -34 117 -13 19 8 33 -17 24 -44 -3 -10
-31 -35 -61 -56 -49 -34 -64 -39 -125 -42 -41 -3 -81 1 -99 8 -36 15 -87 71
-96 105 -6 25 -6 25 -55 -19 -75 -67 -129 -90 -226 -94 -133 -6 -226 38 -275
131 -31 58 -31 165 -1 223 57 107 229 194 486 244 l57 11 0 58 c0 143 -37 242
-103 272 -117 52 -290 -9 -352 -125 -14 -26 -26 -36 -44 -36 -22 0 -23 3 -18
37 14 86 107 182 217 224 57 21 156 38 200 33 14 -2 46 -5 72 -8z m-8997 -24
c65 -30 128 -93 154 -153 33 -75 41 -164 41 -455 0 -256 1 -272 20 -289 18
-16 61 -18 110 -4 10 3 16 -5 18 -22 2 -20 -5 -33 -30 -54 -54 -46 -106 -65
-179 -65 -82 0 -124 24 -158 93 l-24 48 -41 -42 c-22 -23 -69 -55 -103 -71
-53 -25 -73 -29 -147 -29 -175 0 -279 91 -280 246 -1 171 146 278 473 345 l86
17 0 104 c-1 91 -4 111 -25 154 -36 71 -89 98 -186 92 -96 -5 -163 -42 -218
-119 -30 -41 -48 -57 -65 -57 -22 -1 -23 2 -18 35 12 72 92 165 184 213 90 47
297 53 388 13z m1469 12 c3 -9 6 -217 6 -463 0 -445 0 -449 22 -476 12 -15 36
-34 55 -41 22 -10 33 -21 33 -34 0 -20 -6 -20 -227 -18 -248 3 -265 8 -193 53
69 43 70 51 70 425 0 373 -1 381 -69 426 -23 15 -41 33 -41 40 0 13 57 33 235
82 89 25 101 26 109 6z m841 -14 c27 -13 66 -41 87 -62 86 -86 98 -149 98
-518 0 -342 -2 -336 91 -326 57 6 59 5 59 -18 0 -27 -41 -66 -101 -96 -46 -24
-143 -27 -193 -6 -39 16 -75 59 -83 98 -3 16 -6 28 -7 28 -2 0 -23 -20 -48
-43 -103 -99 -248 -129 -380 -78 -45 17 -116 89 -134 137 -34 89 -3 220 67
278 70 59 215 118 374 151 44 10 86 19 93 21 17 5 16 168 -2 229 -26 86 -85
125 -185 125 -103 -1 -188 -48 -246 -135 -27 -42 -39 -52 -55 -48 -27 7 -25
29 11 101 32 64 73 103 149 142 78 40 128 49 245 47 92 -3 118 -7 160 -27z
m1018 7 c97 -31 97 -31 97 -167 0 -66 -2 -120 -4 -120 -2 0 -11 -3 -20 -6 -11
-4 -24 13 -50 65 -69 137 -139 186 -251 179 -68 -4 -101 -21 -137 -69 -45 -59
-28 -145 38 -196 19 -14 94 -51 168 -83 246 -106 309 -173 309 -330 0 -94 -28
-163 -88 -219 -82 -76 -175 -106 -325 -105 -104 1 -172 14 -267 51 l-63 25 0
144 0 144 25 0 c19 0 26 -7 31 -27 22 -92 109 -202 189 -239 66 -31 159 -33
216 -3 72 36 97 133 58 215 -20 40 -85 86 -176 123 -201 83 -271 130 -316 216
-30 56 -30 171 0 237 38 82 116 144 223 175 59 17 277 11 343 -10z m2227 -99
l5 -118 34 65 c37 72 89 122 159 155 37 18 60 21 114 18 37 -2 72 -8 77 -13 8
-8 -23 -231 -34 -243 -1 -2 -19 7 -38 18 -87 52 -207 33 -272 -43 l-35 -41 0
-295 c0 -340 1 -347 82 -373 31 -11 44 -21 46 -36 l3 -22 -240 0 c-231 0 -241
1 -241 19 0 12 14 26 38 38 71 35 73 43 70 428 -3 379 -4 384 -71 420 -62 34
-50 50 61 84 183 56 197 60 217 58 18 -2 20 -11 25 -119z m1068 93 c64 -29
133 -102 158 -169 15 -40 18 -97 23 -374 6 -313 7 -329 27 -348 23 -23 42 -26
97 -15 35 7 37 6 37 -18 0 -29 -44 -71 -105 -98 -48 -22 -142 -25 -189 -5 -39
16 -75 59 -83 98 -3 16 -6 28 -8 28 -1 0 -21 -19 -45 -41 -68 -65 -158 -102
-244 -102 -97 0 -168 25 -221 78 -23 23 -48 59 -55 80 -16 48 -9 159 13 201
55 107 227 190 511 249 l29 6 -5 103 c-6 128 -31 189 -93 223 -49 27 -130 30
-198 7 -52 -18 -125 -78 -157 -129 -16 -25 -29 -35 -47 -35 -22 0 -24 3 -18
28 28 117 127 210 265 249 74 21 244 12 308 -16z m1010 5 c102 -28 102 -29
102 -166 0 -118 0 -120 -23 -120 -18 0 -28 13 -52 67 -52 120 -125 173 -238
173 -113 0 -182 -74 -162 -176 9 -50 54 -95 131 -131 38 -17 117 -54 175 -81
120 -56 169 -99 207 -180 21 -47 24 -64 20 -136 -5 -90 -19 -125 -75 -187
-114 -126 -394 -152 -613 -58 l-50 21 0 134 c0 74 0 137 0 142 0 4 11 8 25 10
15 2 25 -2 25 -9 0 -31 73 -159 116 -201 59 -60 121 -82 210 -76 96 6 153 57
161 145 8 91 -49 153 -194 212 -214 87 -296 147 -327 238 -58 170 46 346 231
393 53 13 267 4 331 -14z m3175 10 c3 -8 6 -218 7 -467 1 -503 -2 -484 68
-517 20 -9 38 -25 40 -35 3 -16 -13 -17 -227 -17 -216 0 -231 1 -231 18 0 11
14 25 35 35 66 31 67 39 66 431 -1 390 1 374 -72 424 -62 43 -47 54 142 106
139 39 164 42 172 22z m557 -79 l5 -88 18 30 c46 78 173 143 293 149 198 11
306 -82 333 -283 6 -44 10 -203 9 -355 -2 -313 0 -322 71 -355 27 -12 41 -25
41 -37 0 -17 -13 -18 -230 -18 -216 0 -230 1 -230 18 0 11 14 25 35 35 70 33
70 35 70 382 0 341 -5 373 -63 427 -82 76 -237 58 -322 -38 l-30 -35 0 -322
c0 -363 2 -374 72 -412 22 -12 38 -27 38 -38 0 -16 -16 -17 -227 -15 -245 3
-269 9 -193 48 70 36 71 41 68 446 l-3 356 -36 31 c-19 18 -44 37 -55 44 -17
10 -17 13 -4 26 17 18 284 97 315 94 18 -2 21 -11 25 -90z m1482 60 c69 -34
120 -90 150 -166 21 -53 23 -74 28 -382 6 -369 5 -365 75 -356 22 2 47 6 55 8
10 3 16 -5 18 -21 3 -30 -31 -67 -93 -99 -48 -25 -151 -29 -194 -6 -35 18 -79
69 -87 101 -6 24 -7 23 -60 -25 -71 -65 -142 -92 -245 -92 -170 0 -273 93
-273 246 0 142 83 226 294 298 65 22 106 33 249 63 24 5 24 6 18 102 -6 111
-19 155 -56 196 -92 101 -295 62 -383 -73 -24 -37 -39 -51 -57 -51 -21 0 -23
3 -17 31 22 110 124 207 256 243 37 11 90 15 160 13 92 -2 112 -6 162 -30z
m-3022 -7 c0 -13 -14 -27 -40 -40 -60 -30 -65 -49 -39 -128 12 -37 64 -168
114 -292 51 -124 94 -232 97 -240 5 -12 7 -11 13 5 5 11 52 130 105 265 54
135 103 263 109 285 13 49 0 73 -61 107 -24 13 -43 30 -43 38 0 13 27 15 168
18 158 2 167 1 167 -16 0 -12 -19 -31 -49 -50 -31 -19 -57 -45 -69 -69 -17
-32 -223 -528 -342 -820 -29 -70 -38 -83 -62 -88 -15 -4 -33 -3 -39 1 -15 9
-57 101 -194 429 -216 515 -221 527 -290 559 -22 11 -35 24 -35 36 0 19 9 20
245 20 237 0 245 -1 245 -20z m-8980 -2165 l0 -455 -40 0 -40 0 0 455 0 455
40 0 40 0 0 -455z m7760 -1 l0 -455 -42 3 -43 3 2 450 c2 248 3 451 3 453 0 1
18 2 40 2 l40 0 0 -456z m343 333 c-43 -45 -81 -84 -85 -87 -10 -8 -68 -6 -69
3 -1 5 25 45 58 90 l60 82 57 -3 58 -4 -79 -81z m-8504 64 c61 -19 161 -83
161 -104 0 -7 -14 -24 -32 -38 l-32 -27 -48 39 c-58 45 -100 59 -185 59 -126
0 -229 -64 -285 -178 -32 -64 -33 -72 -33 -182 0 -106 2 -119 27 -167 58 -110
154 -173 274 -181 98 -6 163 16 225 78 46 46 46 46 69 28 13 -10 30 -23 39
-28 13 -7 9 -16 -29 -55 -57 -58 -131 -95 -214 -105 -201 -25 -370 64 -454
239 -31 64 -37 88 -40 161 -2 48 1 110 7 139 33 154 146 280 296 327 61 19
184 17 254 -5z m813 7 c-6 -7 -43 -46 -81 -85 -64 -67 -74 -73 -110 -73 l-41
0 62 85 62 85 59 0 c47 0 57 -3 49 -12z m835 -30 c28 -26 30 -61 3 -88 -26
-26 -51 -25 -84 1 -32 25 -33 55 -4 86 27 29 55 29 85 1z m2127 2 c154 -58
198 -254 82 -366 -57 -54 -128 -74 -269 -74 l-107 0 0 -195 0 -195 -45 0 -45
0 -1 153 c-1 83 -2 163 -1 177 0 14 0 136 1 273 l1 247 165 0 c141 0 172 -3
219 -20z m895 -6 c12 -15 21 -33 21 -41 0 -21 -46 -63 -70 -63 -27 0 -60 34
-60 63 0 64 70 90 109 41z m4475 7 c26 -29 18 -82 -16 -101 -25 -13 -31 -13
-55 0 -56 31 -35 120 27 120 15 0 35 -9 44 -19z m-386 -100 c8 -1 12 -24 12
-81 l0 -80 81 0 80 0 -3 -37 c-3 -35 -4 -37 -43 -38 -22 0 -57 -2 -77 -3 l-38
-2 0 -188 c0 -187 0 -189 24 -211 19 -18 33 -22 63 -19 21 3 46 8 56 12 15 7
17 2 17 -32 0 -23 -5 -44 -11 -47 -6 -4 -36 -9 -67 -12 -81 -8 -127 13 -152
69 -17 38 -20 66 -20 235 l0 192 -57 3 -58 3 -3 38 -3 37 60 0 61 0 0 78 c0
43 2 81 5 83 4 4 33 4 73 0z m-7481 -177 c28 -16 48 -38 65 -71 22 -45 23 -61
26 -266 l3 -218 -43 3 -43 3 -2 197 c-1 160 -5 204 -18 232 -49 104 -204 96
-265 -14 -23 -42 -25 -56 -30 -230 l-5 -185 -42 -3 -43 -3 0 285 0 286 40 0
40 0 0 -42 0 -42 33 31 c41 39 72 55 122 64 58 9 114 0 162 -27z m943 4 c44
-19 90 -54 90 -69 0 -4 -13 -17 -29 -28 l-29 -21 -52 32 c-93 58 -202 37 -264
-50 -23 -32 -30 -54 -34 -110 -2 -41 0 -84 8 -106 43 -132 215 -182 312 -89
l26 25 31 -23 c17 -12 31 -26 31 -30 0 -16 -82 -76 -119 -87 -193 -58 -383 79
-384 278 -1 119 48 213 138 266 78 45 186 50 275 12z m2120 4 c14 -5 39 -24
55 -42 l30 -32 -30 -24 c-38 -30 -40 -30 -76 6 -76 76 -228 27 -205 -66 8 -31
46 -50 142 -71 117 -26 172 -73 181 -154 6 -63 -28 -126 -85 -158 -90 -49
-241 -35 -309 28 -41 37 -41 51 -2 80 l31 23 31 -30 c45 -42 69 -52 124 -52
61 0 109 28 118 69 13 61 -21 90 -142 120 -103 25 -139 44 -163 84 -40 65 -13
165 55 207 59 37 173 42 245 12z m901 -3 c26 -12 57 -31 69 -45 19 -20 21 -26
10 -39 -30 -37 -49 -38 -96 -6 -59 39 -93 46 -156 31 -142 -35 -197 -228 -101
-358 63 -85 199 -97 275 -25 l26 25 31 -23 c17 -12 31 -28 31 -35 0 -15 -69
-63 -117 -80 -51 -18 -140 -17 -195 2 -58 19 -120 73 -155 131 -35 60 -44 185
-19 260 52 157 234 232 397 162z m1246 -1 c46 -21 80 -68 94 -126 4 -20 9
-125 9 -232 l2 -195 -39 0 c-37 0 -38 1 -41 38 l-3 38 -39 -35 c-85 -77 -233
-75 -311 3 -62 61 -65 151 -8 216 44 50 122 76 247 82 l102 6 0 34 c0 110
-133 155 -263 88 l-58 -29 -17 25 c-25 35 -22 41 28 69 93 51 212 59 297 18z
m649 11 c39 -12 78 -53 100 -104 14 -32 18 -79 22 -227 5 -220 2 -238 -36
-238 -15 0 -32 4 -39 8 -8 5 -12 69 -15 209 -3 185 -5 204 -24 230 -51 70
-152 80 -218 22 -59 -51 -69 -92 -72 -289 l-4 -175 -40 -3 -40 -3 0 270 c0
148 -3 276 -6 285 -5 13 2 16 40 16 l46 0 0 -42 0 -42 33 31 c71 68 150 84
253 52z m631 -1 c39 -11 87 -64 101 -110 6 -18 12 -129 15 -245 l4 -213 -39 0
c-39 0 -43 6 -41 68 1 17 0 16 -40 -21 -91 -87 -278 -71 -334 29 -45 79 -23
168 56 221 49 33 93 43 210 50 l103 6 -5 40 c-7 53 -35 89 -83 105 -64 22
-163 1 -215 -45 -15 -12 -20 -10 -43 19 -24 31 -25 34 -8 47 76 59 215 81 319
49z m1950 -8 c23 -10 55 -31 69 -45 l27 -27 -29 -24 c-36 -29 -46 -29 -69 -4
-29 32 -98 53 -147 46 -99 -15 -160 -87 -166 -196 -2 -38 1 -84 8 -104 26 -79
103 -136 185 -136 49 0 122 31 132 55 7 21 17 19 53 -11 30 -26 30 -27 13 -46
-62 -68 -192 -97 -291 -64 -81 27 -126 66 -163 141 -28 58 -33 77 -32 143 0
83 15 132 59 189 77 101 229 137 351 83z m-6946 -3 c33 -17 50 -35 69 -72 23
-47 25 -61 30 -262 5 -231 7 -223 -51 -223 -27 0 -29 2 -29 40 0 22 -2 40 -4
40 -2 0 -20 -16 -40 -35 -99 -93 -294 -64 -342 52 -31 73 -5 156 62 203 45 30
137 50 238 50 l79 0 -6 47 c-6 56 -45 98 -103 109 -48 9 -131 -10 -176 -41
l-37 -25 -22 32 -23 31 30 23 c46 37 102 52 195 53 71 1 93 -3 130 -22z m3044
6 c59 -20 122 -80 155 -148 33 -70 35 -190 2 -256 -49 -101 -137 -158 -253
-167 -123 -9 -235 55 -285 163 -34 72 -34 190 1 260 36 75 94 130 160 153 47
16 166 14 220 -5z m4442 -2 c26 -12 52 -35 69 -61 30 -46 30 -38 37 -358 l3
-143 -40 3 c-40 3 -41 4 -46 43 -5 39 -6 39 -19 17 -7 -13 -38 -35 -68 -49
-47 -22 -65 -25 -123 -21 -118 9 -180 67 -180 169 0 124 109 189 317 189 l75
0 -7 43 c-9 56 -34 89 -81 105 -64 22 -163 1 -215 -45 -15 -12 -19 -11 -38 13
-25 32 -24 41 10 66 67 50 226 65 306 29z m-9567 -277 l0 -285 -42 3 -43 3 -3
283 -2 282 45 0 45 0 0 -286z m960 1 l0 -285 -45 0 -45 0 0 285 0 285 45 0 45
0 0 -285z m3018 3 l-3 -283 -40 0 -40 0 -3 283 -2 282 45 0 45 0 -2 -282z
m3782 -3 l0 -285 -45 0 -45 0 0 285 0 285 45 0 45 0 0 -285z m698 3 l-3 -283
-40 0 -40 0 -3 283 -2 282 45 0 45 0 -2 -282z m8759 -2718 c31 -86 93 -179
165 -245 65 -60 108 -86 208 -125 37 -15 65 -32 65 -40 0 -8 -27 -24 -64 -37
-87 -31 -180 -93 -246 -165 -60 -65 -86 -108 -125 -208 -15 -37 -32 -65 -40
-65 -9 0 -25 28 -40 70 -33 89 -93 177 -166 244 -62 57 -105 83 -204 121 -37
15 -65 32 -65 40 0 8 26 23 62 36 93 34 151 71 229 148 74 74 108 128 144 223
12 31 24 61 26 65 12 20 30 -2 51 -62z"/>
<path d="M12375 10624 c-166 -25 -271 -63 -386 -140 -196 -130 -325 -308 -385
-529 -22 -84 -30 -268 -15 -361 32 -197 123 -368 269 -505 116 -111 236 -180
379 -221 67 -19 101 -23 238 -22 148 0 166 2 245 28 310 103 524 327 606 633
36 137 39 310 6 433 -93 341 -341 586 -674 665 -66 16 -232 27 -283 19z m251
-395 c122 -38 245 -141 303 -258 121 -239 57 -516 -155 -667 -167 -119 -361
-134 -551 -42 -182 89 -308 315 -284 510 44 349 358 558 687 457z"/>
<path d="M12382 10016 c-132 -43 -222 -176 -206 -305 10 -84 40 -146 95 -195
184 -166 464 -49 486 202 17 191 -193 357 -375 298z"/>
<path d="M15515 10606 c-207 -47 -400 -171 -525 -338 -105 -139 -160 -285
-177 -468 -37 -396 219 -787 602 -918 208 -71 472 -58 654 31 281 139 453 369
507 679 13 75 14 111 5 197 -29 295 -161 525 -390 680 -78 53 -128 77 -234
113 -83 27 -107 31 -237 34 -98 2 -164 -1 -205 -10z m288 -361 c207 -44 368
-210 413 -424 40 -193 -55 -415 -227 -530 -162 -108 -377 -115 -549 -18 -159
89 -270 282 -270 467 0 227 180 449 408 504 75 19 142 19 225 1z"/>
<path d="M15641 10019 c-89 -17 -174 -88 -213 -178 -81 -189 65 -406 272 -405
180 1 319 163 288 336 -30 166 -187 278 -347 247z"/>
<path d="M17635 6059 c-98 -36 -166 -84 -190 -135 -22 -47 -22 -131 0 -173 44
-86 176 -96 268 -20 l37 30 0 165 c0 190 9 179 -115 133z"/>
<path d="M8578 6064 c-125 -45 -175 -79 -209 -146 -38 -74 -12 -191 50 -222
67 -35 209 -1 240 57 8 15 11 72 9 182 l-3 160 -87 -31z"/>
<path d="M10878 6066 c-85 -30 -149 -67 -182 -106 -49 -59 -57 -156 -19 -221
45 -77 187 -80 266 -6 l27 26 0 166 c0 126 -3 165 -12 164 -7 0 -43 -11 -80
-23z"/>
<path d="M15177 6056 c-143 -54 -198 -110 -205 -204 -5 -71 22 -133 68 -157
62 -32 166 -12 223 42 l27 27 0 163 c0 124 -3 163 -12 163 -7 -1 -53 -16 -101
-34z"/>
<path d="M21440 6075 c-65 -22 -151 -64 -181 -87 -9 -8 -28 -31 -43 -52 -49
-72 -29 -196 38 -237 65 -40 190 -13 238 52 17 22 18 42 16 185 l-3 161 -65
-22z"/>
<path d="M12650 4580 l0 -153 113 5 c129 5 175 21 207 73 26 42 26 110 0 152
-32 53 -70 66 -202 71 l-118 4 0 -152z"/>
<path d="M15503 4230 c-88 -18 -123 -50 -123 -113 0 -54 45 -87 117 -87 30 0
70 7 89 16 47 23 84 87 84 147 l0 47 -62 -1 c-35 -1 -82 -5 -105 -9z"/>
<path d="M16810 4233 c-56 -9 -91 -26 -115 -54 -32 -38 -32 -80 -1 -116 21
-24 32 -28 92 -31 60 -3 74 -1 103 20 46 30 70 74 78 137 l6 51 -69 -1 c-38
-1 -80 -4 -94 -6z"/>
<path d="M11757 4226 c-80 -22 -121 -78 -97 -136 16 -39 59 -60 123 -60 93 0
157 60 165 155 l4 55 -73 -1 c-41 0 -96 -6 -122 -13z"/>
<path d="M14822 4460 c-54 -13 -108 -55 -131 -102 -27 -57 -28 -156 -2 -213
75 -162 315 -149 371 21 20 60 9 164 -23 212 -43 65 -137 101 -215 82z"/>
<path d="M19267 4229 c-83 -20 -117 -51 -117 -108 0 -65 74 -107 160 -91 79
14 124 67 136 158 l7 52 -74 -1 c-41 -1 -91 -5 -112 -10z"/>
</g>
</svg>
